<svg version="1.2" xmlns="http://www.w3.org/2000/svg" viewBox="0 0 4000 4000" width="4000" height="4000">
	<defs>
		<clipPath clipPathUnits="userSpaceOnUse" id="cp1">
			<path d="m1994.07 660.61c25.46-52.02 98.9-39.44 140.69-15.93 16.28 9.11 32.85 23.72 37.39 42.63 0.45 1.88 0.3 1.49 0.14 3.57l-34.04 14.89c-18.28 7.16-43.06 8.07-62.41 5.39-35.84-4.97-60.43-22.11-81.77-50.55z"/>
		</clipPath>
		<linearGradient id="g1" x2="1" gradientUnits="userSpaceOnUse" gradientTransform="matrix(178.379,0,0,88.235,1994.067,668.427)">
			<stop offset="0" stop-color="#553628"/>
			<stop offset="1" stop-color="#7c4435"/>
		</linearGradient>
		<clipPath clipPathUnits="userSpaceOnUse" id="cp2">
			<path d="m958.12 1741.81c100.87-235.5 282.81-457.1 527.65-549.96 77.12-28.73 140.22-19.88 213.36 13.76 25.82-4.84 238.4 76.34 284.55 89.56 4.67 20.08 8.55 40.7 16.47 59.8l30.69 14.9c83.24 48.12 176.57 80.92 246.16 149.62-47.15 5.31-92.32-1.06-138.76 13.82-237.27 75.94-621.61 416.5-779.24 608.69-51.79 63.15-118.28 171.71-177.04 221.15-23.67 19.92-52.04 35.89-83.32 38.89-181.28 11.49-159.48-359.51-143.34-477.48 6.01-46.53 17.23-94.31 15.75-141.36-0.52-16.44-3-28.01-12.93-41.39z"/>
		</clipPath>
		<linearGradient id="g2" x2="1" gradientUnits="userSpaceOnUse" gradientTransform="matrix(-556.544,-602.232,1086.585,-1004.152,1717.187,2022.16)">
			<stop offset="0" stop-color="#f8a41c"/>
			<stop offset="1" stop-color="#fbbe18"/>
		</linearGradient>
	</defs>
	<style>
		.s0 { fill: #ffffff } 
		.s1 { fill: url(#g1) } 
		.s2 { fill: #755e52 } 
		.s3 { fill: #ea511c } 
		.s4 { fill: #cc3c21 } 
		.s5 { fill: #f36817 } 
		.s6 { fill: #6cc52e } 
		.s7 { fill: #8fd123 } 
		.s8 { fill: #62ab31 } 
		.s9 { fill: #f68420 } 
		.s10 { fill: url(#g2) } 
		.s11 { fill: #fac846 } 
	</style>
	<g id="g1">
		<g id="group-R5">
			<path id="Forma 1" class="s0" d=""/>
			<path id="Forma 2" fill-rule="evenodd" class="s0" d="m1000 0h2000c552.28 0 1000 447.72 1000 1000v2000c0 552.28-447.72 1000-1000 1000h-2000c-552.28 0-1000-447.72-1000-1000v-2000c0-552.28 447.72-1000 1000-1000z"/>
			<g id="Clip-Path: path3" clip-path="url(#cp1)">
				<path id="path3" class="s1" d="m1994.07 660.61c25.46-52.02 98.9-39.44 140.69-15.93 16.28 9.11 32.85 23.72 37.39 42.63 0.45 1.88 0.3 1.49 0.14 3.57l-34.04 14.89c-18.28 7.16-43.06 8.07-62.41 5.39-35.84-4.97-60.43-22.11-81.77-50.55z"/>
			</g>
			<path id="path5" class="s2" d="m1994.07 660.61c21.34 28.44 45.93 45.58 81.77 50.55 19.35 2.68 44.13 1.77 62.41-5.39l34.04-14.89c-60.17 123.93-84.32 194.84-99.12 333.8-6.78 83.37-0.72 165.15 12.19 247.6l11.73 53.84c3.38 17.65 7.52 35.29 14.5 51.93-10.67 6.06-21.51 11.92-31.91 18.42-16.49-8.32-32.63-17.72-48.84-26.6l-30.69-14.9c-7.92-19.1-11.8-39.72-16.47-59.8-20.15-92.33-29.65-183.65-32.05-278.04l0.49-9.77c-0.35-20.29 1.49-41.68-2.65-61.6 6.72-34.71 3.8-70.33 7.02-105.41 5.64-61.38 20.54-120.72 37.58-179.74z"/>
			<path id="path6" class="s2" d="m2138.25 705.77l34.04-14.89c-60.17 123.93-84.32 194.84-99.12 333.8-6.78 83.37-0.72 165.15 12.19 247.6l11.73 53.84c3.38 17.65 7.52 35.29 14.5 51.93-10.67 6.06-21.51 11.92-31.91 18.42-16.49-8.32-32.63-17.72-48.84-26.6-2.88-52.39 1.33-104.6 1.97-156.99 1.87-148.92 7.68-255.52 59.75-398.15 13.53-37.08 31.36-72.24 45.69-108.96z"/>
			<path id="path7" class="s3" d="m2073.17 1024.68c198.47-1.75 395.27 21.8 588.14 68.05-3.3 5.08-6.31 7.82-11.6 10.82-31.96 18.09-68.92 29.69-103.1 43.13-38.41 15.12-77.82 32.83-114.88 51.01-103.05 55.59-203 117.62-306.36 172.46l-13.78 7.9c-6.98-16.64-11.12-34.28-14.5-51.93l-11.73-53.84c-12.91-82.45-18.97-164.23-12.19-247.6z"/>
			<path id="path8" class="s4" d="m2097.09 1326.12c52.94-24.35 287.19-127.16 334.64-128.43-103.05 55.59-203 117.62-306.36 172.46l-13.78 7.9c-6.98-16.64-11.12-34.28-14.5-51.93z"/>
			<path id="path9" class="s5" d="m2073.17 1024.68c111.54 1.03 222.67 4.49 333.24 19.99-39.3 23.3-81.06 42.96-119.57 67.41-73.31 46.55-137.24 102.31-201.48 160.2-12.91-82.45-18.97-164.23-12.19-247.6z"/>
			<path id="path10" class="s4" d="m3201.13 1443.01c44.12 19.16 141.88 225.02 160.07 271.06 142.85 363.33 100.73 795.02-87.27 1133.92-67.89 122.22-155.45 233.5-258.37 328.13-118.68 109.29-257.72 196.31-407.89 255.27-71.39 27.41-145.12 48.73-220.12 63.64-203.6 40.64-416.56 33.16-616.8-21.67-52.7-14.37-104.52-31.97-155.08-52.65-45.9-19.19-92.52-39.48-135.03-65.5 17.57-3.05 85.45 29.39 105.67 36.87 568.17 228.32 1237.29-40.33 1551.81-551.07 239.81-375.53 301.4-870.93 123.03-1284.08-14.58-31.29-54.6-83.82-60.02-113.92z"/>
			<path id="path11" class="s5" d="m1637.87 1069.11c35.53-5.7 70.8-16.59 106.06-24.07 68.32-14.97 137.86-24.32 207.7-27.91 2.4 94.39 11.9 185.71 32.05 278.04-46.15-13.22-258.73-94.4-284.55-89.56-73.14-33.64-136.24-42.49-213.36-13.76-244.88 92.9-426.74 314.42-527.65 549.96-71.98 179-98.8 375.83-77.31 567.55 7.45 67.09 20.69 133.55 39.53 198.37 114.1 405.79 462.07 729.63 895.5 733.64 66.32-0.22 134.81-5.05 199.53-20.01 19.8-4.57 67.98-22.57 85.28-16.53-153.64 136.9-401.3 176.48-596.3 123.46-19.91-5.57-142.83-52.77-145.2-52.48-2.78 0.35-2.46 0.35-4.71 1.12-200.85-142.29-350.98-341.66-450.15-565.81-38.21-88.76-66.73-181.69-84.89-276.6-28.33-147.64-31.43-300.07-9.15-448.75 4.77-31.85 10.69-63.53 17.75-94.97 66.91-319.83 293.81-619.28 586.51-765.68 27.08-9.31 67.57-8.17 96.85-13.68 43.52-8.19 85.31-26.65 126.51-42.33z"/>
			<path id="path12" class="s6" d="m1493.35 520.33c20.58 29.31 61.72 43.75 89.86 65.39 58.06 45.04 152.4 155.84 132.54 234.25-4.6 3.35-8.84 6.35-14.04 8.68-303.2-127.81-676.92-127.4-998.77-92.4l-1.18 3.67c-2.55-0.15-3.03 0.12-5.23-1.36l-0.62 0.71 8.18-0.84 1.43 3.42c5.18-3.29 15.93-4.48 27.53-4.89 154.58-6.12 295.98-1.75 446.37 16.23 202.67 19.5 402.83 63.14 588.67 147.66-306.18 182.32-702.51 113.34-1007.46-38.56-38.35-18.9-168.32-103.94-203.26-100.34 184.17 195.49 488.96 351.7 759.34 359.65 31.46 0.92 66.89-1.67 97.8 3.52 27.08-9.31 67.57-8.17 96.85-13.68 43.52-8.19 85.31-26.65 126.51-42.33 35.53-5.7 70.8-16.59 106.06-24.07 68.32-14.97 137.86-24.32 207.7-27.91l0.49-9.77c-0.35-20.29 1.49-41.68-2.65-61.6-21.9-13.91-43.18-28.48-65.64-41.52-16.7-9.69-34.72-17.64-50.87-28.13-33.05-172.03-182.52-296.56-339.61-355.78zm-935.98 241.62c-2.73-4.24-3.39-5.11-3.62-10.08 245.96-203.23 624.16-346.66 939.6-231.54 157.09 59.2 306.56 183.75 339.61 355.78 16.15 10.49 34.17 18.44 50.87 28.13 22.46 13.04 43.74 27.61 65.64 41.52 4.14 19.92 2.3 41.31 2.65 61.6l-0.49 9.77c-69.84 3.59-139.38 12.94-207.7 27.91-35.26 7.48-70.53 18.37-106.06 24.07-41.2 15.68-82.99 34.14-126.51 42.33-29.28 5.51-69.77 4.37-96.85 13.68-30.91-5.19-66.34-2.6-97.8-3.52-270.38-7.95-575.17-164.16-759.34-359.65z"/>
			<path id="path13" class="s7" d="m1138.68 532.71c177.35-16.48 370.08 67.01 450.48 231.49-133.79-39.39-272.56-54.61-411.32-62.96-132.82-3.8-265.69-6.28-398.14 6.67-32.06 3.76-68.77 11.89-100.79 9.77l-2.31-4.17c0.88-2.46 1.48-4.18 3.08-6.27 16.51-21.6 49.38-38.27 72.58-51.88 136.71-80.2 231.44-103.4 386.42-122.65z"/>
			<path id="path14" class="s8" d="m1493.35 520.33c157.08 59.19 306.57 183.76 339.61 355.78 16.15 10.49 34.17 18.44 50.87 28.13 22.46 13.04 43.74 27.61 65.64 41.52 4.14 19.92 2.3 41.31 2.65 61.6l-0.49 9.77c-69.84 3.59-139.38 12.94-207.7 27.91-35.26 7.48-70.53 18.37-106.06 24.07-41.2 15.68-82.99 34.14-126.51 42.33-29.28 5.51-69.77 4.37-96.85 13.68-30.91-5.19-66.34-2.6-97.8-3.52-270.38-7.95-575.17-164.16-759.34-359.65 34.94-3.6 164.91 81.44 203.26 100.34 304.87 151.9 701.37 220.9 1007.46 38.56-185.82-84.52-386.01-128.16-588.67-147.66-136.99-15.19-271.85-23.94-409.67-16.54-15.37 0.83-52.97-1.96-64.23 5.2l-1.43-3.42-8.18 0.84 0.62-0.71c2.2 1.48 2.68 1.21 5.23 1.36l1.18-3.67c321.68-35.01 695.77-35.38 998.77 92.4 5.2-2.33 9.44-5.33 14.04-8.68 19.88-78.4-74.5-189.22-132.54-234.25-28.14-21.64-69.28-36.08-89.86-65.39zm324.62 401.59c-44.08 65.59-117.17 103.03-180.1 147.19 35.53-5.7 70.8-16.59 106.06-24.07 68.32-14.97 137.86-24.32 207.7-27.91l0.49-9.77c-42.4-32.4-83.56-66.67-134.15-85.44z"/>
			<path id="path15" class="s3" d="m2661.31 1092.73c86.01 23.58 177.97 52.28 254.36 99.38 7.21 4.7 20.96 10.85 23.84 19.44 58.37 19.72 237.22 170.68 261.62 231.46 5.44 30.02 45.44 82.64 60.02 113.92 178.37 413.16 116.78 908.54-123.03 1284.1-314.45 510.65-983.75 779.42-1551.81 551.04-20.22-7.47-88.1-39.91-105.67-36.86-37.83-13.24-93.97-52.78-126.2-78.28 2.25-0.77 1.93-0.77 4.71-1.12 2.37-0.29 125.29 46.91 145.2 52.48 194.92 53.03 442.76 13.42 596.3-123.46 299.78-249.27 428.14-724.27 399.55-1103.9-14.37-163.28-92.17-471.72-223.2-581.44-56.19-55.28-127.87-87.94-197.32-123.02 14.53-8.99 30.87-17.66 45.69-26.32 103.36-54.84 203.31-116.87 306.36-172.46 37.06-18.18 76.47-35.89 114.88-51.01 34.18-13.44 71.14-25.04 103.1-43.13 5.29-3 8.3-5.74 11.6-10.82z"/>
			<path id="path16" class="s5" d="m2661.31 1092.73c86.01 23.58 177.97 52.28 254.36 99.38 7.21 4.7 20.96 10.85 23.84 19.44 8.45 32.72 37.08 61.57 53.48 90.96 317.4 680.46-165.71 1618.5-845.63 1874.28 279.99-249.26 421.43-630.32 433.68-999.74 6.87-217.7-25.84-472.57-181.65-637.7-53.74-56.96-122.79-107.78-195.24-138.04-24.23-10.12-57.9-15.92-78.78-31.16 103.36-54.84 203.31-116.87 306.36-172.46 37.06-18.18 76.47-35.89 114.88-51.01 34.18-13.44 71.14-25.04 103.1-43.13 5.29-3 8.3-5.74 11.6-10.82z"/>
			<path id="path17" class="s9" d="m958.12 1741.81c100.87-235.5 282.81-457.1 527.65-549.96 77.12-28.73 140.22-19.88 213.36 13.76 25.82-4.84 238.4 76.34 284.55 89.56 4.67 20.08 8.55 40.7 16.47 59.8l30.69 14.9c83.24 48.12 176.57 80.92 246.16 149.62 131.03 109.72 208.83 418.16 223.2 581.44 28.55 379.74-99.73 854.52-399.55 1103.9-17.3-6.04-65.48 11.96-85.28 16.53-64.72 14.96-133.21 19.79-199.53 20.01-433.44-4-781.44-327.93-895.5-733.64-18.84-64.82-32.08-131.28-39.53-198.37-21.49-191.72 5.33-388.55 77.31-567.55z"/>
			<g id="Clip-Path: path18" clip-path="url(#cp2)">
				<path id="path18" class="s10" d="m958.12 1741.81c100.87-235.5 282.81-457.1 527.65-549.96 77.12-28.73 140.22-19.88 213.36 13.76 25.82-4.84 238.4 76.34 284.55 89.56 4.67 20.08 8.55 40.7 16.47 59.8l30.69 14.9c83.24 48.12 176.57 80.92 246.16 149.62-47.15 5.31-92.32-1.06-138.76 13.82-237.27 75.94-621.61 416.5-779.24 608.69-51.79 63.15-118.28 171.71-177.04 221.15-23.67 19.92-52.04 35.89-83.32 38.89-181.28 11.49-159.48-359.51-143.34-477.48 6.01-46.53 17.23-94.31 15.75-141.36-0.52-16.44-3-28.01-12.93-41.39z"/>
			</g>
			<path id="path20" class="s3" d="m1699.13 1205.61c25.82-4.84 238.4 76.34 284.55 89.56 4.67 20.08 8.55 40.7 16.47 59.8-100.66-49.13-200.91-99.21-301.02-149.36z"/>
			<path id="path21" class="s11" d="m1564.92 1279.85c89.28-10.17 182.95 61.03 189.52 152.16 7.92 98.19-95.61 166.16-168.43 211.71-38.66 24.19-78.77 47-114.01 76.16-120.57 99.77-201.21 262.65-301.82 379.43-18.66 14.08-37.62 26.41-61.44 28.96-20.37 2.18-44.31-3.39-60.39-16.47-28.4-23.12-37.56-66.93-41.31-101.41-29.23-278.47 275.58-696.18 557.88-730.54z"/>
		</g>
	</g>
</svg>